<?xml version="1.0" encoding="utf-8"?>
<!-- Generator: Adobe Illustrator 19.2.1, SVG Export Plug-In . SVG Version: 6.00 Build 0)  -->
<svg version="1.1" id="layer" xmlns="http://www.w3.org/2000/svg" xmlns:xlink="http://www.w3.org/1999/xlink" x="0px" y="0px"
	 viewBox="0 0 652 652" style="enable-background:new 0 0 652 652;" xml:space="preserve">
<style type="text/css">
	.st0{fill:#F48120;}
	.st1{fill:#231F20;}
</style>
<path class="st0" d="M100.1,331h10.3c2.7,0,5.5-0.4,8.1-1.2c2.4-0.7,4.6-1.8,6.6-3.4c1.9-1.5,3.4-3.4,4.5-5.6
	c1.1-2.4,1.7-5.1,1.6-7.7c0-2.5-0.4-4.9-1.4-7.2c-0.9-2.1-2.2-4-3.9-5.5c-1.8-1.6-3.9-2.8-6.2-3.5c-2.7-0.8-5.4-1.3-8.2-1.2H91
	c0,27,0,53.9,0,80.7v9.2h57V257.8H20v127.9h66.9v-9.1H29.3V266.8h109.6v109.7h-38.7C100.1,361.3,100.1,346.1,100.1,331L100.1,331
	L100.1,331z M110.7,322.7h-10.6V304h10.6c2.9-0.2,5.8,0.7,8.2,2.3c2.1,1.7,3.2,4.3,3,6.9c0.1,2.6-1,5.1-3,6.8
	C116.6,321.9,113.7,322.8,110.7,322.7z"/>
<path class="st0" d="M80.2,332.8c0-1.9-0.3-3.9-1.1-5.7c-0.7-1.6-1.8-3.1-3.2-4.2c-1.6-1.3-3.3-2.4-5.2-3.1
	c-2.4-0.9-4.8-1.7-7.2-2.3c-2.5-0.6-4.5-1.2-6.1-1.7c-1.3-0.4-2.6-1-3.8-1.8c-0.8-0.5-1.5-1.2-1.9-2.1c-0.4-0.8-0.6-1.8-0.5-2.7
	c0-1.8,0.9-3.4,2.3-4.4c1.8-1.3,4-2,6.2-1.8c2.4,0,4.8,0.5,7.1,1.4c2.5,1,4.9,2.4,7.1,4l4.9-6.9c-2.6-2.1-5.5-3.7-8.6-4.9
	c-3.3-1.2-6.8-1.7-10.4-1.6c-2.4,0-4.8,0.3-7.1,1.1c-2.1,0.7-4,1.7-5.6,3.1c-1.6,1.3-2.8,2.9-3.7,4.8c-0.9,1.9-1.4,4.1-1.3,6.2
	c-0.1,2.1,0.3,4.2,1.2,6.2c0.8,1.7,1.9,3.2,3.3,4.3c1.6,1.3,3.5,2.3,5.4,3c2.4,0.9,4.9,1.6,7.4,2.1c2,0.5,4,1,5.9,1.7
	c1.3,0.4,2.5,1,3.6,1.8c0.8,0.5,1.4,1.2,1.8,2.1c0.3,0.8,0.5,1.6,0.5,2.5c0.1,1.9-0.9,3.7-2.5,4.8c-2,1.3-4.3,1.9-6.7,1.8
	c-3,0-6-0.5-8.8-1.8c-2.8-1.3-5.4-3-7.7-5l-5.5,6.5c3,2.7,6.4,4.9,10.2,6.3c3.7,1.4,7.6,2.1,11.5,2.1c2.5,0,5.1-0.3,7.5-1
	c2.1-0.6,4.1-1.7,5.9-3c1.6-1.3,2.9-3,3.8-4.9C79.8,337.4,80.2,335.1,80.2,332.8z"/>
<path class="st0" d="M100.1,335c0-1.3,0-2.7,0-4h10.3c2.7,0,5.5-0.4,8.1-1.2c2.4-0.7,4.6-1.8,6.6-3.4c1.9-1.5,3.4-3.4,4.5-5.6
	c1.1-2.4,1.7-5.1,1.6-7.7c0-2.5-0.4-4.9-1.4-7.2c-0.9-2.1-2.2-4-3.9-5.5c-1.8-1.6-3.9-2.8-6.2-3.5c-2.7-0.8-5.4-1.3-8.2-1.2H91v90
	h57v-128H20v127.9h66.9v-9.1H29.3V266.8h109.6v109.7h-38.7C100.1,362.7,100.1,348.9,100.1,335L100.1,335L100.1,335z M110.7,322.7
	h-10.6V304h10.6c2.9-0.2,5.8,0.7,8.2,2.3c2.1,1.7,3.2,4.3,3,6.9c0.1,2.6-1,5.1-3,6.8C116.6,321.9,113.7,322.8,110.7,322.7z"/>
<path class="st0" d="M100.1,335c0-1.3,0-2.7,0-4h10.3c2.7,0,5.5-0.4,8.1-1.2c2.4-0.7,4.6-1.8,6.6-3.4c1.9-1.5,3.4-3.4,4.5-5.6
	c1.1-2.4,1.7-5.1,1.6-7.7c0-2.5-0.4-4.9-1.4-7.2c-0.9-2.1-2.2-4-3.9-5.5c-1.8-1.6-3.9-2.8-6.2-3.5c-2.7-0.8-5.4-1.3-8.2-1.2H91v0.9
	c0,12.9,0,25.7,0,38.6v50.4h57V257.8H20v127.9h66.9v-9.1H29.3V266.8h109.6v109.7h-38.7C100.1,362.7,100.1,348.9,100.1,335L100.1,335
	L100.1,335z M100.1,322.7V304h10.6c2.9-0.2,5.8,0.7,8.2,2.3c2.1,1.7,3.2,4.3,3,6.9c0.1,2.6-1,5.1-3,6.8c-2.3,1.8-5.2,2.8-8.2,2.6
	L100.1,322.7L100.1,322.7z"/>
<path class="st0" d="M79.1,327.2c-0.7-1.6-1.8-3.1-3.2-4.2c-1.6-1.3-3.3-2.4-5.2-3.1c-2.4-0.9-4.8-1.7-7.2-2.3
	c-2.5-0.6-4.5-1.2-6.1-1.7c-1.3-0.4-2.6-1-3.8-1.8c-0.8-0.5-1.5-1.2-1.9-2.1c-0.4-0.8-0.6-1.8-0.5-2.7c0-1.8,0.9-3.4,2.3-4.4
	c1.8-1.3,4-2,6.2-1.8c2.4,0,4.8,0.5,7.1,1.4c2.5,1,4.9,2.4,7.1,4l4.9-6.9c-2.6-2.1-5.5-3.7-8.6-4.9c-3.3-1.2-6.8-1.7-10.3-1.6
	c-2.4,0-4.8,0.3-7.1,1.1c-2.1,0.7-4,1.7-5.6,3.1c-1.6,1.3-2.8,2.9-3.7,4.8c-0.9,1.9-1.4,4.1-1.3,6.2c-0.1,2.1,0.3,4.2,1.2,6.2
	c0.8,1.7,1.9,3.2,3.3,4.3c1.6,1.3,3.5,2.3,5.4,3c2.4,0.9,4.9,1.6,7.4,2.1c2,0.5,4,1,5.9,1.7c1.3,0.4,2.5,1,3.6,1.8
	c0.8,0.5,1.4,1.2,1.8,2.1c0.3,0.8,0.5,1.6,0.5,2.5c0.1,1.9-0.9,3.7-2.5,4.8c-2,1.3-4.3,1.9-6.7,1.8c-3,0-6-0.5-8.8-1.8
	c-2.8-1.3-5.4-3-7.7-5l-5.5,6.5c3,2.7,6.4,4.9,10.2,6.3c3.7,1.4,7.6,2.1,11.5,2.1c2.5,0,5.1-0.3,7.5-1c2.1-0.6,4.1-1.7,5.9-3
	c1.6-1.3,2.9-3,3.8-4.9c0.9-2.1,1.4-4.3,1.4-6.6C80.2,330.9,79.9,329,79.1,327.2z"/>
<path class="st1" d="M175.8,279.2c0-1.4,0.7-2.7,1.8-3.6c1.5-1,3.2-1.5,5-1.4c1.9,0,3.9,0.4,5.7,1.1c2,0.8,3.9,1.9,5.7,3.2l3.9-5.6
	c-2.1-1.7-4.4-3-6.9-3.9c-2.7-0.9-5.5-1.4-8.3-1.3c-1.9,0-3.9,0.3-5.7,0.9c-1.7,0.5-3.3,1.4-4.6,2.5c-1.2,1.1-2.2,2.4-3,3.9
	c-0.7,1.6-1.1,3.3-1.1,5c0,1.7,0.3,3.4,0.9,5c0.6,1.3,1.5,2.5,2.7,3.5c1.3,1,2.8,1.8,4.4,2.3c1.9,0.7,3.9,1.3,6,1.7
	c1.6,0.4,3.2,0.8,4.8,1.4c1,0.3,2,0.8,2.9,1.4c0.6,0.4,1.1,1,1.4,1.6c0.3,0.6,0.4,1.3,0.4,2c0,1.5-0.7,3-2,3.9
	c-1.6,1-3.5,1.5-5.4,1.4c-2.4,0-4.8-0.4-7.1-1.4c-2.2-1-4.3-2.4-6.2-4l-4.2,5.4c2.4,2.2,5.2,3.9,8.2,5.1c3,1.1,6.1,1.6,9.2,1.6
	c2,0,4.1-0.3,6-0.8c1.7-0.5,3.2-1.3,4.6-2.4c1.3-1.1,2.4-2.4,3.1-3.9c0.8-1.7,1.1-3.5,1.1-5.3c0-1.6-0.3-3.2-0.9-4.6
	c-0.6-1.3-1.5-2.5-2.5-3.4c-1.3-1.1-2.7-1.9-4.2-2.5c-1.9-0.7-3.9-1.4-5.8-1.8c-2-0.5-3.6-0.9-4.9-1.4c-1.1-0.3-2.1-0.8-3-1.4
	c-0.6-0.4-1.2-1-1.5-1.7c-0.3-0.7-0.4-1.4-0.4-2.1l0,0L175.8,279.2z M208.3,268.2v41.8h7.4v-41.8H208.3z M260.6,280.1v30h7.4v-41.8
	h-7.8l-12.8,19.8l-12.7-19.8h-7.8v41.8h7.2v-30l13.1,19.6h0.2l13.2-19.7l0,0L260.6,280.1z M311.1,282.4c0-2-0.3-4-1.1-5.8
	c-0.7-1.7-1.8-3.2-3.2-4.4c-1.5-1.3-3.2-2.3-5.1-2.9c-2.1-0.7-4.4-1-6.6-1h-16.5v41.8h7.4v-13.4h8.3c2.2,0,4.4-0.3,6.5-0.9
	c1.9-0.6,3.7-1.5,5.3-2.7c1.5-1.2,2.7-2.7,3.6-4.5C310.6,286.6,311.1,284.4,311.1,282.4L311.1,282.4L311.1,282.4z M303.6,282.6
	c0.1,2.1-0.8,4.1-2.3,5.5c-1.9,1.5-4.2,2.2-6.6,2.1h-8.5v-15.2h8.5c2.3-0.1,4.7,0.5,6.6,1.9c1.7,1.4,2.6,3.5,2.4,5.7l0,0
	L303.6,282.6z M318.6,310.3h29.3v-6.7h-21.9v-35.3h-7.4v41.8l0,0L318.6,310.3z M386.6,268.2h-31v41.8h31.3v-6.6h-23.9v-11.2h21v-6.5
	h-21v-10.9h23.7V268.2L386.6,268.2z M202,347.2c0-2-0.3-4-1.1-5.8c-0.7-1.7-1.8-3.2-3.2-4.4c-1.5-1.3-3.2-2.2-5.1-2.8
	c-2.1-0.7-4.4-1-6.6-1h-16.5V375h7.4v-13.4h8.3c2.2,0,4.4-0.3,6.5-0.9c1.9-0.6,3.7-1.5,5.3-2.7c1.5-1.2,2.7-2.7,3.6-4.5
	C201.6,351.5,202,349.4,202,347.2L202,347.2L202,347.2z M194.6,347.4c0.1,2.1-0.8,4.1-2.3,5.5c-1.9,1.5-4.2,2.2-6.6,2.1h-8.5v-15
	h8.5c2.3-0.1,4.7,0.5,6.6,1.9c1.7,1.4,2.6,3.5,2.4,5.7l0,0L194.6,347.4z M245.1,375.1l-11.3-15.8c1.4-0.4,2.8-1,4-1.7
	c1.2-0.7,2.3-1.6,3.1-2.7c0.9-1.1,1.6-2.3,2.1-3.6c1.1-3.3,1-7-0.3-10.2c-0.7-1.6-1.7-3-3.1-4.2c-1.5-1.2-3.1-2.1-4.9-2.6
	c-2.1-0.6-4.3-1-6.5-0.9h-18.8V375h7.4v-14.6h9.2l10.3,14.6L245.1,375.1L245.1,375.1z M236.2,346.9c0.1,2-0.8,3.9-2.3,5.1
	c-1.8,1.4-4,2-6.3,1.9h-10.8v-14h10.7c2.3-0.1,4.5,0.5,6.4,1.8C235.5,342.9,236.4,344.9,236.2,346.9L236.2,346.9L236.2,346.9z
	 M294.6,354.1c0-2.9-0.5-5.7-1.6-8.4c-2.1-5.2-6.2-9.4-11.3-11.5c-2.8-1.2-5.8-1.7-8.8-1.7c-5.9-0.1-11.6,2.2-15.8,6.4
	c-2,2-3.6,4.3-4.6,6.9c-2.1,5.4-2.1,11.4,0,16.7c2.1,5.2,6.2,9.4,11.3,11.5c2.8,1.2,5.8,1.7,8.8,1.7c5.9,0.1,11.6-2.2,15.8-6.4
	c2-2,3.6-4.3,4.6-6.9C294.1,359.7,294.6,356.9,294.6,354.1L294.6,354.1L294.6,354.1z M286.9,354.2c0,2-0.3,3.9-1,5.8
	c-0.7,1.7-1.7,3.3-2.9,4.6c-1.3,1.3-2.8,2.4-4.5,3.2c-5.5,2.5-11.9,1.2-16-3.1c-1.3-1.4-2.3-3-2.9-4.8c-1.4-3.7-1.4-7.8,0-11.5
	c0.7-1.7,1.7-3.3,2.9-4.6c1.3-1.3,2.8-2.4,4.5-3.2c3.7-1.6,7.9-1.6,11.5,0c1.7,0.7,3.3,1.8,4.6,3.2c1.3,1.4,2.3,3,2.9,4.8
	c0.7,1.8,1.1,3.8,1,5.8l0,0L286.9,354.2z M340.9,369.2v-17.6h-17.8v6.4h10.7v7.8c-1.4,1-3,1.8-4.6,2.3c-1.8,0.6-3.7,0.9-5.6,0.9
	c-2,0-4-0.4-5.8-1.1c-1.7-0.7-3.3-1.8-4.5-3.1c-1.3-1.4-2.3-3-2.9-4.8c-0.7-1.9-1-3.9-1-6c0-2,0.3-3.9,1-5.7
	c0.7-1.7,1.6-3.3,2.9-4.6c1.2-1.4,2.7-2.4,4.3-3.2c1.7-0.8,3.5-1.2,5.4-1.2c1.2,0,2.4,0.1,3.6,0.3c1,0.2,2,0.5,3,0.9
	c0.9,0.4,1.8,0.9,2.6,1.4c0.9,0.6,1.7,1.2,2.4,1.8l4.6-5.6c-1-0.9-2.2-1.6-3.3-2.3c-1.1-0.7-2.4-1.3-3.6-1.8
	c-1.3-0.5-2.7-0.9-4.2-1.1c-1.6-0.3-3.3-0.4-5-0.4c-3,0-5.9,0.6-8.7,1.7c-5.2,2.2-9.2,6.3-11.3,11.5c-1.1,2.7-1.6,5.5-1.6,8.4
	c0,2.9,0.5,5.8,1.5,8.5c2,5.2,6.1,9.3,11.2,11.4c2.8,1.1,5.9,1.7,8.9,1.6c1.8,0,3.5-0.2,5.3-0.5c1.6-0.3,3.1-0.8,4.6-1.4
	c1.4-0.6,2.8-1.3,4.1-2.1C338.5,371.1,339.7,370.2,340.9,369.2L340.9,369.2z M386,375l-11.3-15.8c1.4-0.4,2.8-1,4-1.7
	c1.2-0.7,2.3-1.6,3.1-2.7c0.9-1.1,1.6-2.3,2.1-3.6c1.1-3.3,1-7-0.3-10.2c-0.7-1.6-1.7-3-3.1-4.2c-1.5-1.2-3.2-2-5-2.6
	c-2.1-0.6-4.3-1-6.5-0.9h-18.7V375h7.4v-14.6h9.2l10.3,14.6H386L386,375z M377.2,346.9c0.1,2-0.8,3.9-2.3,5.1c-1.8,1.4-4,2-6.3,1.9
	h-10.8v-14h10.7c2.3-0.1,4.5,0.5,6.4,1.8C376.5,342.9,377.4,344.9,377.2,346.9L377.2,346.9L377.2,346.9z M415.3,332.9h-6.9
	L389.9,375h7.5l4.3-10.1h19.9l4.2,10.1h7.8L415.3,332.9L415.3,332.9L415.3,332.9z M419,358.4h-14.4l7.2-16.7L419,358.4L419,358.4z
	 M474.7,345v30h7.4v-41.8h-7.8L461.5,353l-12.7-19.8h-7.8V375h7.2v-30l13.1,19.6h0.2l13.2-19.7l0,0L474.7,345z M526.5,345v30h7.4
	v-41.8h-8L513.2,353l-12.7-19.8h-7.8V375h7.2v-30l13.1,19.6h0.2l13.2-19.7l0,0L526.5,345z M575.6,333.2h-31.1V375h31.3v-6.6h-24
	v-11.2h21v-6.6h-21v-10.9h23.7v-6.6l0,0L575.6,333.2z M620,375l-11.3-15.8c1.4-0.4,2.8-1,4-1.7c1.2-0.7,2.3-1.6,3.1-2.7
	c0.9-1.1,1.6-2.3,2.1-3.6c1.1-3.3,1-7-0.3-10.2c-0.7-1.6-1.7-3-3.1-4.2c-1.4-1.2-3.1-2-4.9-2.6c-2.1-0.6-4.3-1-6.5-0.9h-18.6V375
	h7.4v-14.6h9.2l10.3,14.6H620z M611.3,346.9c0.1,2-0.8,3.9-2.3,5.1c-1.8,1.4-4,2-6.3,1.9h-10.8v-14h10.7c2.3-0.1,4.5,0.5,6.4,1.8
	C610.6,342.9,611.4,344.9,611.3,346.9z"/>
</svg>
